<?xml version="1.0" encoding="UTF-8"?>
<svg id="Layer_2" data-name="Layer 2" xmlns="http://www.w3.org/2000/svg" viewBox="0 0 410.99 124.41">
  <defs>
    <style>
      .cls-1 {
        fill: #fff;
      }

      .cls-2 {
        fill: #facc15;
      }
    </style>
  </defs>
  <g id="doob_logos" data-name="doob logos">
    <g id="logo_text_with_dooby" data-name="logo text with dooby">
      <g id="logo_text" data-name="logo text">
        <path class="cls-1" d="m0,.22h52.61c14.27,0,24.85,4.47,31.67,13.41,6.82,9.02,10.27,25.17,10.27,48.61s-3.45,39.91-10.27,48.76c-6.82,8.86-17.4,13.33-31.67,13.33H0V.22Zm48.06,102.39c6.51,0,11.37-1.96,14.58-5.96,3.21-3.92,4.78-15.37,4.78-34.42s-1.57-30.18-4.78-34.26c-3.21-4-8.08-6.04-14.58-6.04h-20.93v80.67h20.93Z"/>
        <path class="cls-1" d="m317.7.22h57.39c13.09,0,21.87,2.43,26.5,7.21,4.63,4.86,6.9,12.54,6.9,22.97v.39c0,8.55-1.57,14.74-4.63,18.66-2.51,4.23-6.82,6.82-13.01,7.68v2.27c5.57.16,10.27,2.51,14.27,7.13,3.92,4.63,5.88,12.15,5.88,22.74,0,13.09-2.27,22.19-6.82,27.28-4.55,5.17-13.48,7.76-26.73,7.76h-59.74V.22Zm55.59,47.82c6.98,0,9.17-4.23,9.17-13.64s-1.8-12.7-8.39-12.7h-29.4v26.34h28.62Zm1.65,54.57c3.45,0,5.8-1.18,6.98-3.53,1.18-2.35,1.8-6.74,1.8-13.09s-.71-10.74-2.04-13.41c-1.41-2.59-4.08-3.92-8.08-3.92h-28.93v33.95h30.26Z"/>
      </g>
      <g id="dooby">
        <path class="cls-2" d="m206.12,21c-7.21,0-67.03,2.66-71.35,6.42s-6.43,15.52-6.43,35.28,2.12,31.6,6.43,35.28c4.31,3.76,64.13,7.42,71.35,7.42v19c-15.68,0-82.17-3.38-91.26-11.76-9.09-8.31-13.64-24.93-13.64-49.94s4.55-41.55,13.64-49.94C123.96,4.38,190.44,0,206.12,0v21Z"/>
        <path class="cls-2" d="m206.12,0c15.6,0,82.09,4.38,91.26,12.76,9.09,8.39,13.64,25.01,13.64,49.94s-4.55,41.63-13.64,49.94c-9.17,8.39-75.66,11.76-91.26,11.76v-19c7.13,0,67.03-3.66,71.35-7.42,4.31-3.68,6.43-15.44,6.43-35.28s-2.12-31.52-6.43-35.28-64.21-6.42-71.35-6.42V0Z"/>
        <path class="cls-2" d="m148.31,89c-5.46-4.45-8.19-13.36-8.19-26.76s2.73-22.26,8.19-26.76c5.46-4.49,12.9-6.72,22.31-6.72s16.8,2.23,22.31,6.72c5.46,4.49,8.19,13.4,8.19,26.76s-2.73,22.31-8.19,26.76c-5.51,4.49-12.94,6.72-22.31,6.72s-16.85-2.23-22.31-6.72Z"/>
        <path class="cls-1" d="m150.93,78.61c-2.35-2.72-3.53-8.17-3.53-16.37s1.18-13.62,3.53-16.37c2.35-2.75,5.56-4.11,9.62-4.11s7.25,1.36,9.62,4.11c2.35,2.75,3.53,8.2,3.53,16.37s-1.18,13.65-3.53,16.37c-2.37,2.75-5.58,4.11-9.62,4.11s-7.27-1.36-9.62-4.11Z"/>
        <path class="cls-2" d="m217.28,89c-5.46-4.45-8.19-13.36-8.19-26.76s2.73-22.26,8.19-26.76c5.46-4.49,12.9-6.72,22.31-6.72s16.8,2.23,22.31,6.72c5.46,4.49,8.19,13.4,8.19,26.76s-2.73,22.31-8.19,26.76c-5.51,4.49-12.94,6.72-22.31,6.72s-16.85-2.23-22.31-6.72Z"/>
        <path class="cls-1" d="m219.93,78.61c-2.35-2.72-3.53-8.17-3.53-16.37s1.18-13.62,3.53-16.37c2.35-2.75,5.56-4.11,9.62-4.11s7.25,1.36,9.62,4.11c2.35,2.75,3.53,8.2,3.53,16.37s-1.18,13.65-3.53,16.37c-2.37,2.75-5.58,4.11-9.62,4.11s-7.27-1.36-9.62-4.11Z"/>
      </g>
    </g>
  </g>
</svg>